<?xml version="1.0" encoding="UTF-8" standalone="no"?><!DOCTYPE svg PUBLIC "-//W3C//DTD SVG 1.1//EN" "http://www.w3.org/Graphics/SVG/1.1/DTD/svg11.dtd"><svg width="100%" height="100%" viewBox="0 0 16 16" version="1.1" xmlns="http://www.w3.org/2000/svg" xmlns:xlink="http://www.w3.org/1999/xlink" xml:space="preserve" xmlns:serif="http://www.serif.com/" style="fill-rule:evenodd;clip-rule:evenodd;stroke-linejoin:round;stroke-miterlimit:2;"><path d="M2.29,8.43l0,-8.43l-2.29,0l0,7.58c0,0.86 0.7,1.57 1.57,1.57c0.4,0 0.72,0.32 0.72,0.72l0,6.14l2.29,0l0,-5.29c0,-0.86 -0.7,-1.57 -1.57,-1.57c-0.4,0 -0.72,-0.32 -0.72,-0.72Z" style="fill:#1d4ed8;fill-rule:nonzero;"/><path d="M5.72,8.43l0,-8.43l-2.29,0l0,7.58c0,0.86 0.7,1.57 1.57,1.57c0.4,0 0.72,0.32 0.72,0.72l0,6.14l2.29,0l0,-5.29c0,-0.86 -0.7,-1.57 -1.57,-1.57c-0.4,0 -0.72,-0.32 -0.72,-0.72Z" style="fill:#1d4ed8;fill-rule:nonzero;"/><path d="M13.71,2.29l2.28,0l0,-2.29l-9.14,0l0,7.58c0,0.86 0.7,1.57 1.57,1.57c0.4,0 0.72,0.32 0.72,0.72l0,6.14l2.29,0l0,-5.29c0,-0.86 -0.7,-1.57 -1.57,-1.57c-0.4,0 -0.72,-0.32 -0.72,-0.72l0,-0.42l5.71,0l0,-2.29l-5.71,0l0,-3.42l4.57,0l0,-0.01Z" style="fill:#1d4ed8;fill-rule:nonzero;"/></svg>