<?xml version="1.0" encoding="UTF-8"?>
<svg id="Layer_1" data-name="Layer 1" xmlns="http://www.w3.org/2000/svg" viewBox="0 0 16 16">
  <defs>
    <style>
      .cls-1 {
        fill: #101828;
        stroke-width: 0px;
      }
    </style>
  </defs>
  <path class="cls-1" d="M2.29,8.42V0H0v7.58c0,.86.7,1.57,1.57,1.57h0c.4,0,.72.32.72.72v6.14h2.29v-5.29c0-.86-.7-1.57-1.57-1.57h0c-.4,0-.72-.32-.72-.72Z"/>
  <path class="cls-1" d="M5.72,8.42V0h-2.29v7.58c0,.86.7,1.57,1.57,1.57h0c.4,0,.72.32.72.72v6.14h2.29v-5.29c0-.86-.7-1.57-1.57-1.57h0c-.4,0-.72-.32-.72-.72Z"/>
  <path class="cls-1" d="M13.71,2.29h2.28V0h-2.28s-6.86,0-6.86,0v7.58c0,.86.7,1.57,1.57,1.57h0c.4,0,.72.32.72.72v6.14h2.29v-5.29c0-.86-.7-1.57-1.57-1.57h0c-.4,0-.72-.32-.72-.72v-.42h5.71v-2.29h-2.28s-3.43,0-3.43,0v-3.42h4.57Z"/>
</svg>