<?xml version="1.0" encoding="UTF-8"?>
<svg id="Layer_1" data-name="Layer 1" xmlns="http://www.w3.org/2000/svg" viewBox="0 0 16 16">
  <defs>
    <style>
      .cls-1 {
        fill: #e2e8ef;
      }

      .cls-1, .cls-2 {
        stroke-width: 0px;
      }

      .cls-2 {
        fill: #101828;
      }
    </style>
  </defs>
  <rect class="cls-1" x="0" y="0" width="16" height="16" rx="8" ry="8"/>
  <g>
    <path class="cls-2" d="M4.43,8.26V3h-1.43v4.74c0,.54.44.98.98.98h0c.25,0,.45.2.45.45v3.84h1.43v-3.31c0-.54-.44-.98-.98-.98h0c-.25,0-.45-.2-.45-.45Z"/>
    <path class="cls-2" d="M6.57,8.26V3h-1.43v4.74c0,.54.44.98.98.98h0c.25,0,.45.2.45.45v3.84h1.43v-3.31c0-.54-.44-.98-.98-.98h0c-.25,0-.45-.2-.45-.45Z"/>
    <path class="cls-2" d="M11.57,4.43h1.43v-1.43h-1.43s-4.29,0-4.29,0v4.74c0,.54.44.98.98.98h0c.25,0,.45.2.45.45v3.84h1.43v-3.31c0-.54-.44-.98-.98-.98h0c-.25,0-.45-.2-.45-.45v-.26h3.57v-1.43h-1.43s-2.14,0-2.14,0v-2.14h2.86Z"/>
  </g>
</svg>